<svg width="26" height="24" viewBox="0 0 26 24" fill="none" xmlns="http://www.w3.org/2000/svg">
<g clip-path="url(#clip0_84_6)">
<path d="M12.525 0C5.62496 0 0 4.561 0 10.168C0 15.19 4.45398 19.399 10.475 20.197C11.942 20.512 11.775 21.05 11.443 23.023C11.389 23.338 11.189 24.259 12.526 23.698C13.863 23.137 19.741 19.451 22.371 16.425C24.0429 14.7657 25.004 12.5211 25.051 10.166C25.05 4.561 19.429 0 12.525 0ZM8.10199 13.155C8.10252 13.2193 8.07757 13.2811 8.03259 13.3271C7.98761 13.373 7.92627 13.3992 7.862 13.4H4.349C4.28616 13.3983 4.22609 13.3737 4.17999 13.331C4.15727 13.3093 4.13939 13.283 4.1275 13.2538C4.11561 13.2247 4.10995 13.1934 4.11096 13.162V7.702C4.11043 7.63772 4.13538 7.57585 4.18036 7.52993C4.22534 7.48401 4.28668 7.45779 4.35095 7.457H5.23297C5.29734 7.45646 5.35932 7.48138 5.4054 7.52634C5.45147 7.57129 5.47795 7.63263 5.479 7.697V12.035H7.867C7.93094 12.0371 7.99155 12.0639 8.03613 12.1097C8.08071 12.1556 8.10573 12.217 8.10596 12.281L8.10199 13.155ZM10.221 13.163C10.2215 13.2273 10.1965 13.2891 10.1516 13.3351C10.1066 13.381 10.0452 13.4072 9.98096 13.408H9.099C9.06714 13.4085 9.03549 13.4028 9.00586 13.391C8.97623 13.3793 8.94919 13.3618 8.92633 13.3396C8.90347 13.3174 8.88521 13.2909 8.87262 13.2616C8.86003 13.2323 8.85336 13.2009 8.85297 13.169V7.703C8.85243 7.63889 8.87723 7.57717 8.922 7.53128C8.96676 7.48539 9.02788 7.45905 9.09198 7.458H9.974C10.0389 7.45852 10.101 7.48447 10.147 7.53027C10.193 7.57608 10.2192 7.63809 10.22 7.703L10.221 13.163ZM16.272 13.163C16.2725 13.2271 16.2477 13.2888 16.2029 13.3347C16.1582 13.3806 16.0971 13.4069 16.033 13.408H15.151C15.1122 13.4081 15.0738 13.3991 15.0391 13.3817C15.0044 13.3644 14.9742 13.3391 14.951 13.308L12.451 9.929V13.17C12.4514 13.2019 12.4455 13.2336 12.4337 13.2632C12.4218 13.2929 12.4042 13.3199 12.382 13.3427C12.3597 13.3656 12.3331 13.3838 12.3038 13.3964C12.2744 13.4089 12.2429 13.4156 12.211 13.416H11.327C11.2951 13.4165 11.2634 13.4107 11.2338 13.3989C11.2041 13.3871 11.1771 13.3695 11.1544 13.3472C11.1316 13.3249 11.1134 13.2982 11.101 13.2689C11.0886 13.2395 11.0821 13.2079 11.082 13.176V7.71C11.0814 7.67814 11.0872 7.64648 11.0989 7.61685C11.1107 7.58722 11.1282 7.5602 11.1504 7.53735C11.1726 7.51449 11.1991 7.49625 11.2283 7.48366C11.2576 7.47107 11.2891 7.46439 11.321 7.464H12.195C12.2347 7.46341 12.2739 7.47293 12.3088 7.49165C12.3438 7.51036 12.3734 7.53767 12.395 7.571L14.9 10.95V7.71C14.8994 7.67814 14.9052 7.64648 14.9169 7.61685C14.9287 7.58722 14.9462 7.5602 14.9684 7.53735C14.9906 7.51449 15.0171 7.49625 15.0464 7.48366C15.0757 7.47107 15.1071 7.46439 15.139 7.464H16.021C16.0529 7.46252 16.0847 7.46736 16.1147 7.47824C16.1447 7.48912 16.1722 7.50581 16.1957 7.52737C16.2193 7.54894 16.2383 7.57494 16.2517 7.60387C16.2651 7.63281 16.2727 7.66412 16.274 7.696V7.703L16.272 13.163ZM21.126 8.57899C21.1264 8.61078 21.1205 8.64232 21.1087 8.67184C21.0969 8.70135 21.0794 8.72825 21.0573 8.751C21.0351 8.77375 21.0086 8.79191 20.9794 8.80444C20.9502 8.81696 20.9187 8.82361 20.887 8.824H18.491V9.74599H20.88C20.9442 9.74572 21.0059 9.77076 21.0518 9.81569C21.0976 9.86061 21.1239 9.92181 21.125 9.986V10.875C21.1255 10.9069 21.1197 10.9385 21.108 10.9681C21.0962 10.9978 21.0788 11.0248 21.0566 11.0476C21.0344 11.0705 21.0079 11.0888 20.9786 11.1013C20.9493 11.1139 20.9179 11.1206 20.886 11.121H18.491V12.043H20.88C20.944 12.0427 21.0056 12.0676 21.0514 12.1123C21.0972 12.157 21.1237 12.218 21.125 12.282V13.164C21.1254 13.1958 21.1195 13.2273 21.1077 13.2568C21.0959 13.2863 21.0784 13.3132 21.0562 13.336C21.034 13.3587 21.0075 13.3769 20.9783 13.3894C20.9491 13.402 20.9178 13.4086 20.886 13.409H17.373C17.3082 13.4085 17.2462 13.3825 17.2003 13.3367C17.1545 13.2908 17.1285 13.2288 17.128 13.164V7.70399C17.1285 7.63918 17.1545 7.57717 17.2003 7.53133C17.2462 7.4855 17.3082 7.45952 17.373 7.459H20.88C20.9438 7.46259 21.0041 7.48955 21.0493 7.53474C21.0944 7.57994 21.1214 7.64018 21.125 7.70399L21.126 8.57899Z" fill="#1BB91F"/>
</g>
<defs>
<clipPath id="clip0_84_6">
<rect width="25.051" height="23.875" fill="white"/>
</clipPath>
</defs>
</svg>
