<svg width="21" height="21" viewBox="0 0 21 21" fill="none" xmlns="http://www.w3.org/2000/svg">
<g clip-path="url(#clip0_84_8)">
<path d="M12.9371 7.34304C14.0643 8.46934 14.6987 9.9967 14.7014 11.5901C14.704 13.1836 14.0746 14.713 12.9511 15.843L12.9371 15.858L10.2751 18.52C9.14594 19.6492 7.61447 20.2836 6.0176 20.2836C4.42072 20.2836 2.88926 19.6492 1.7601 18.52C0.630937 17.3909 -0.00341795 15.8594 -0.00341797 14.2625C-0.00341799 12.6657 0.630937 11.1342 1.7601 10.005L3.2301 8.53504C3.31691 8.44785 3.42726 8.38785 3.54764 8.36238C3.66802 8.33691 3.79321 8.34708 3.9079 8.39164C4.02259 8.4362 4.12181 8.51322 4.19342 8.61328C4.26503 8.71334 4.30592 8.8321 4.3111 8.95504C4.33818 9.66662 4.46924 10.3704 4.7001 11.044C4.73911 11.1568 4.74574 11.2782 4.71922 11.3945C4.69271 11.5108 4.63412 11.6174 4.5501 11.702L4.0321 12.22C3.76069 12.482 3.54396 12.7952 3.39445 13.1416C3.24493 13.4879 3.1656 13.8604 3.16106 14.2376C3.15651 14.6148 3.22684 14.9892 3.36797 15.339C3.50909 15.6888 3.71821 16.0072 3.98322 16.2756C4.24823 16.5441 4.56386 16.7573 4.91184 16.9029C5.25982 17.0485 5.63323 17.1237 6.01045 17.124C6.38767 17.1243 6.7612 17.0498 7.10942 16.9048C7.45764 16.7597 7.77363 16.547 8.0391 16.279L10.7001 13.618C10.9651 13.3533 11.1754 13.0388 11.3189 12.6927C11.4623 12.3467 11.5362 11.9757 11.5362 11.601C11.5362 11.2264 11.4623 10.8554 11.3189 10.5093C11.1754 10.1632 10.9651 9.84882 10.7001 9.58404C10.5739 9.45899 10.4366 9.34553 10.2901 9.24504C10.2084 9.18893 10.141 9.11449 10.0933 9.02767C10.0455 8.94085 10.0187 8.84406 10.0151 8.74504C10.0064 8.52686 10.043 8.30925 10.1227 8.10597C10.2024 7.90268 10.3234 7.71815 10.4781 7.56404L11.3121 6.73004C11.4181 6.62453 11.558 6.55977 11.707 6.54715C11.8561 6.53453 12.0048 6.57486 12.1271 6.66104C12.4175 6.86376 12.6896 7.09164 12.9401 7.34204L12.9371 7.34304ZM18.5201 1.76104C17.3902 0.633344 15.859 0 14.2626 0C12.6662 0 11.135 0.633344 10.0051 1.76104L7.3431 4.42204L7.3291 4.43704C6.71029 5.06033 6.23532 5.81143 5.93747 6.63768C5.63963 7.46394 5.52612 8.34534 5.60492 9.2201C5.68372 10.0949 5.9529 10.9418 6.39361 11.7015C6.83431 12.4612 7.43587 13.1154 8.1561 13.618C8.27837 13.7042 8.4271 13.7445 8.57616 13.7319C8.72522 13.7193 8.86505 13.6545 8.9711 13.549L9.8051 12.715C9.95978 12.5609 10.0808 12.3764 10.1605 12.1731C10.2402 11.9698 10.2768 11.7522 10.2681 11.534C10.2644 11.435 10.2377 11.3382 10.1899 11.2514C10.1422 11.1646 10.0748 11.0901 9.9931 11.034C9.84655 10.9335 9.70934 10.8201 9.5831 10.695C9.31805 10.4303 9.10778 10.1158 8.96432 9.76975C8.82086 9.42366 8.74702 9.05269 8.74702 8.67804C8.74702 8.30339 8.82086 7.93242 8.96432 7.58633C9.10778 7.24024 9.31805 6.92582 9.5831 6.66104L12.2461 4.00004C12.5127 3.73694 12.8285 3.52892 13.1755 3.38786C13.5224 3.2468 13.8938 3.17546 14.2683 3.17792C14.6429 3.18038 15.0133 3.25659 15.3584 3.4022C15.7035 3.5478 16.0165 3.75996 16.2796 4.02654C16.5427 4.29312 16.7507 4.60892 16.8918 4.95589C17.0328 5.30287 17.1042 5.67423 17.1017 6.04878C17.0993 6.42332 17.023 6.79372 16.8774 7.13881C16.7318 7.4839 16.5197 7.79694 16.2531 8.06004L15.7351 8.57804C15.6511 8.66273 15.5925 8.76927 15.566 8.88558C15.5395 9.00189 15.5461 9.12331 15.5851 9.23604C15.8142 9.90961 15.9435 10.613 15.9691 11.324C15.9743 11.447 16.0152 11.5657 16.0868 11.6658C16.1584 11.7659 16.2576 11.8429 16.3723 11.8874C16.487 11.932 16.6122 11.9422 16.7326 11.9167C16.8529 11.8912 16.9633 11.8312 17.0501 11.744L18.5201 10.274C19.6478 9.1441 20.2811 7.61293 20.2811 6.01654C20.2811 4.42015 19.6478 2.88897 18.5201 1.75904V1.76104Z" fill="#292929"/>
</g>
<defs>
<clipPath id="clip0_84_8">
<rect width="20.28" height="20.281" fill="white"/>
</clipPath>
</defs>
</svg>
