<svg width="69" height="25" viewBox="0 0 69 25" fill="none" xmlns="http://www.w3.org/2000/svg">
<path d="M33.6712 15.489H31.6022V6.17798C31.6022 4.82198 32.9582 4.45398 32.9582 3.41898C32.9663 3.35864 32.9608 3.29725 32.9421 3.23932C32.9233 3.18139 32.8918 3.1284 32.8499 3.08426C32.808 3.04012 32.7567 3.00594 32.6998 2.98425C32.6429 2.96257 32.5819 2.95392 32.5212 2.95895H29.8772V1.18896H32.7972C35.0282 1.18896 35.0282 2.40796 35.0282 3.30396C35.0282 4.86796 33.6712 5.23498 33.6712 6.17798V15.489Z" fill="#00B400"/>
<path d="M41.1432 15.4899V9.41989C41.1432 8.54589 40.5922 8.1099 39.6492 8.1099C38.5922 8.1099 37.8092 8.56989 37.8092 9.41989V15.4899H35.7402V6.28989H37.8092V7.38989C38.0101 6.99715 38.3222 6.67219 38.7064 6.45545C39.0907 6.2387 39.5302 6.13974 39.9702 6.1709C42.2702 6.1709 43.2122 7.4589 43.2122 9.4129V15.4829L41.1432 15.4899Z" fill="#00B400"/>
<path d="M52.5442 6.293V13.443C52.5442 15.029 51.3252 15.604 49.8082 15.604H47.6932C45.5552 15.604 44.8652 14.293 44.8652 12.615C44.8687 12.2657 44.9463 11.9211 45.093 11.604C45.2397 11.287 45.4522 11.0047 45.7162 10.776C45.3158 10.4552 45.0228 10.0199 44.8765 9.52808C44.7302 9.03629 44.7376 8.51156 44.8977 8.02408C45.0578 7.5366 45.3629 7.10962 45.7722 6.80026C46.1815 6.49091 46.6756 6.31393 47.1882 6.293H49.2112V8.06299H47.9922C47.1412 8.06299 46.8422 8.22399 46.8422 8.89099C46.8421 9.0218 46.8698 9.15115 46.9234 9.27048C46.977 9.3898 47.0552 9.4964 47.1531 9.58325C47.2509 9.6701 47.366 9.73521 47.4908 9.77429C47.6157 9.81338 47.7474 9.82555 47.8772 9.81H49.2112V11.581H47.9462C47.8097 11.5749 47.6735 11.5977 47.5464 11.6479C47.4194 11.6981 47.3043 11.7745 47.2088 11.8722C47.1133 11.9699 47.0394 12.0866 46.9921 12.2148C46.9448 12.343 46.9251 12.4797 46.9343 12.616C46.9343 13.19 47.0032 13.835 47.7852 13.835H49.7623C50.2223 13.789 50.4752 13.651 50.4752 13.235V6.29199L52.5442 6.293Z" fill="#00B400"/>
<path d="M60.6353 12.7079C60.6353 14.6619 58.9802 15.6079 57.3022 15.6079C56.6501 15.6406 55.9987 15.5298 55.3939 15.2835C54.7892 15.0371 54.2459 14.661 53.8022 14.1819L54.9523 12.9629C55.5939 13.5274 56.4196 13.8382 57.2742 13.8369C57.5922 13.849 57.9028 13.7391 58.1423 13.5295C58.3818 13.3199 58.5321 13.0267 58.5623 12.7099C58.5623 11.4909 54.1483 11.8099 54.1483 8.98488C54.1483 7.12288 55.2753 6.18489 57.2983 6.18489C58.3621 6.17969 59.4113 6.43221 60.3563 6.92089L59.6442 8.57689C58.9009 8.26933 58.1037 8.11293 57.2993 8.11687C56.6323 8.11687 56.2183 8.36989 56.2183 8.98989C56.2213 10.0409 60.6353 9.97187 60.6353 12.7079Z" fill="#00B400"/>
<path d="M55.4121 4.45087V1.71484H57.4811V2.68085H61.2291V4.45087H55.4121Z" fill="#00B400"/>
<path d="M66.6611 8.93698C66.6611 8.20098 65.8801 8.10898 65.0521 8.10898C64.1781 8.10898 63.4191 8.20098 63.4191 8.93698V9.69598H61.3501V8.93698C61.3501 6.95998 62.7501 6.17798 65.0501 6.17798C65.1885 6.17403 65.327 6.18173 65.4641 6.20099L68.1541 5.00098L68.7291 6.54099L67.8291 6.88599C68.1297 7.13199 68.3679 7.44556 68.5244 7.80112C68.6808 8.15668 68.7509 8.54415 68.7291 8.93198V12.703C68.7587 13.0583 68.714 13.4159 68.5978 13.7531C68.4816 14.0902 68.2965 14.3994 68.0543 14.6611C67.8121 14.9228 67.5181 15.1312 67.1909 15.273C66.8638 15.4149 66.5107 15.487 66.1541 15.485H63.7401L63.2111 12.585H62.2451V10.815H65.0271L65.4871 13.715H66.1311C66.5451 13.692 66.6141 13.324 66.6601 12.864L66.6611 8.93698ZM68.7301 16.037V16.589C68.7301 18.221 67.8561 18.681 66.2931 18.681H62.4761V16.911H66.2931C66.5001 16.911 66.6381 16.888 66.6381 16.589V16.037H68.7301Z" fill="#00B400"/>
<path d="M23.7961 1.88189C23.6819 1.72186 23.5334 1.58934 23.3614 1.49401C23.1894 1.39869 22.9984 1.34298 22.8021 1.3309H3.89711C3.70094 1.31862 3.51001 1.26267 3.33821 1.16717C3.16641 1.07167 3.0181 0.93903 2.90413 0.778894L2.59114 0.283868C2.54735 0.213298 2.48938 0.152591 2.42091 0.105584C2.35244 0.0585771 2.27497 0.0263066 2.19337 0.0107966C2.11178 -0.00471334 2.02786 -0.00310873 1.94691 0.0154964C1.86597 0.0341014 1.78973 0.06931 1.7231 0.11889L0.280105 1.17587C0.140104 1.28083 0.0444906 1.43443 0.0120992 1.60638C-0.0202922 1.77833 0.0128993 1.95618 0.105117 2.10488L1.09413 3.66488C1.20858 3.82429 1.35725 3.95605 1.52925 4.05053C1.70125 4.14501 1.89222 4.19979 2.08815 4.21087H21.0271C21.2232 4.22201 21.4142 4.27683 21.5864 4.3713C21.7585 4.46577 21.9074 4.59751 22.0221 4.75689L23.2891 6.74789C23.3331 6.81845 23.3912 6.87911 23.4599 6.92602C23.5285 6.97293 23.6061 7.00505 23.6878 7.02038C23.7695 7.0357 23.8535 7.03389 23.9345 7.01504C24.0154 6.99619 24.0916 6.96072 24.1581 6.91088L25.5721 5.87087C25.7119 5.76577 25.8073 5.61212 25.8396 5.44018C25.8718 5.26824 25.8384 5.09047 25.7461 4.94189L23.7961 1.88189Z" fill="#00B400"/>
<path d="M9.09414 24.3289C9.28144 24.3197 9.46234 24.2578 9.61593 24.1502C9.76952 24.0426 9.88958 23.8938 9.96218 23.7209L10.5622 22.0589C10.5955 21.9908 10.6099 21.915 10.604 21.8394C10.5981 21.7639 10.5721 21.6913 10.5286 21.6292C10.4851 21.5671 10.4257 21.5178 10.3567 21.4865C10.2877 21.4551 10.2115 21.4428 10.1361 21.4509H9.51815C9.44277 21.459 9.36659 21.4467 9.29757 21.4153C9.22855 21.384 9.16925 21.3347 9.12575 21.2726C9.08225 21.2105 9.05616 21.1379 9.05025 21.0623C9.04435 20.9867 9.05879 20.911 9.09212 20.8429L12.8551 10.5599C13.0164 10.1726 13.2722 9.83187 13.5991 9.56888L13.8452 9.38889C14.1936 9.15832 14.5978 9.02601 15.0152 9.00589H17.2962C17.4931 9.01637 17.6851 9.07085 17.8582 9.16534C18.0312 9.25983 18.1809 9.39191 18.2962 9.55188L18.6671 10.1329C18.7111 10.2036 18.7693 10.2644 18.838 10.3114C18.9067 10.3584 18.9844 10.3906 19.0662 10.4059C19.1481 10.4212 19.2322 10.4194 19.3133 10.4005C19.3944 10.3815 19.4706 10.3459 19.5371 10.2959L22.1862 8.35388C22.326 8.24878 22.4214 8.09513 22.4536 7.92319C22.4858 7.75124 22.4525 7.57348 22.3601 7.4249L21.2741 5.7179C21.1594 5.55851 21.0106 5.42677 20.8385 5.33231C20.6663 5.23784 20.4752 5.18302 20.2791 5.17188H12.5791C12.162 5.19178 11.7582 5.32412 11.4102 5.55487L8.54317 7.66089C8.2168 7.92415 7.96135 8.2648 7.80013 8.65189L3.34414 20.8399C3.27087 21.0125 3.15057 21.1611 2.99691 21.2686C2.84325 21.3761 2.66247 21.4382 2.47518 21.4479H1.51516C1.42344 21.4488 1.33254 21.465 1.24618 21.4959C1.11215 21.5416 0.989322 21.6152 0.885887 21.7119C0.782451 21.8087 0.700729 21.9262 0.646141 22.0569L0.0461649 23.7189C0.0129307 23.787 -0.00145565 23.8628 0.00447794 23.9384C0.0104115 24.014 0.0364564 24.0866 0.0799174 24.1488C0.123378 24.2109 0.182637 24.2603 0.251609 24.2918C0.320582 24.3233 0.396714 24.3357 0.472129 24.3279L9.09414 24.3289Z" fill="#00B400"/>
<path d="M35.683 22.6869C35.683 23.8639 34.92 24.3939 33.653 24.3939C32.244 24.3939 31.623 23.7469 31.623 22.6869V21.5669H33.071V22.3169H32.4641V22.6919C32.4641 23.3919 33.007 23.6489 33.653 23.6489C34.299 23.6489 34.842 23.3899 34.842 22.6919V20.5579C34.842 19.9109 34.287 19.8469 33.653 19.8469C33.019 19.8469 32.4641 19.9109 32.4641 20.5579V20.9329H31.624V20.5579C31.624 19.5109 32.4 19.0969 33.654 19.0969C34.908 19.0969 35.684 19.5109 35.684 20.5579L35.683 22.6869Z" fill="#00B400"/>
<path d="M40.6601 22.6869C40.6601 23.8639 39.8971 24.3939 38.6301 24.3939C37.2211 24.3939 36.6001 23.7469 36.6001 22.6869V21.5669H38.0481V22.3169H37.4421V22.6919C37.4421 23.3919 37.9851 23.6489 38.6311 23.6489C39.2771 23.6489 39.8211 23.3899 39.8211 22.6919V20.5579C39.8211 19.9109 39.2651 19.8469 38.6311 19.8469C37.9971 19.8469 37.4421 19.9109 37.4421 20.5579V20.9329H36.6021V20.5579C36.6021 19.5109 37.3781 19.0969 38.6321 19.0969C39.8861 19.0969 40.6621 19.5109 40.6621 20.5579L40.6601 22.6869Z" fill="#00B400"/>
<path d="M42.457 19.157V22.635C42.457 23.307 42.884 23.643 43.569 23.643C44.332 23.643 44.914 23.268 44.914 22.635V19.157H45.754V24.329H44.914V23.696C44.7712 23.9336 44.5637 24.1256 44.3158 24.2496C44.0679 24.3736 43.7897 24.4244 43.514 24.396C42.144 24.396 41.614 23.696 41.614 22.638V19.16L42.457 19.157Z" fill="#00B400"/>
<path d="M47.8621 24.3288H47.022V19.6948C47.022 18.7898 47.85 18.6218 47.85 18.0398C47.85 17.9228 47.85 17.6648 47.55 17.6648H45.7791V16.9148H47.553C48.678 16.9148 48.691 17.5228 48.691 17.9748C48.691 18.9058 47.863 18.9318 47.863 19.6948L47.8621 24.3288Z" fill="#00B400"/>
<path d="M50.7191 21.3288C51.1932 21.3058 51.6681 21.3536 52.1281 21.4708V20.5528C52.1281 19.9058 51.5721 19.8418 50.9391 19.8418C50.3061 19.8418 49.7491 19.9058 49.7491 20.5528V20.8118H48.9091V20.5528C48.9091 19.5058 49.6851 19.0918 50.9391 19.0918C52.1931 19.0918 52.9691 19.5058 52.9691 20.5528V24.3278H52.1281V22.5438C52.1281 22.0778 51.2751 22.0778 50.7281 22.0778C50.1591 22.0778 49.6031 22.1948 49.6031 22.7498C49.6031 23.4498 49.6031 23.5778 50.5341 23.5778H50.7151V24.3278H50.2881C48.8531 24.3278 48.8401 23.5518 48.8401 22.7768C48.8441 21.7048 49.5681 21.3288 50.7191 21.3288Z" fill="#00B400"/>
<path d="M54.8041 19.157V22.635C54.8041 23.307 55.2311 23.643 55.9161 23.643C56.6791 23.643 57.2612 23.268 57.2612 22.635V19.157H58.1011V24.329H57.2612V23.696C57.1184 23.9336 56.9109 24.1256 56.663 24.2496C56.415 24.3736 56.1369 24.4244 55.8611 24.396C54.4901 24.396 53.9612 23.696 53.9612 22.638V19.16L54.8041 19.157Z" fill="#00B400"/>
<path d="M56.498 16.9148H58.698V17.5998H57.25V18.0908H56.5L56.498 16.9148Z" fill="#00B400"/>
</svg>
