<svg width="19" height="19" viewBox="0 0 19 19" fill="none" xmlns="http://www.w3.org/2000/svg">
<path d="M9.5 1.4C7.89797 1.4 6.33192 1.87506 4.99988 2.7651C3.66784 3.65514 2.62965 4.92018 2.01658 6.40026C1.40351 7.88035 1.2431 9.50899 1.55564 11.0802C1.86818 12.6515 2.63963 14.0948 3.77244 15.2276C4.90524 16.3604 6.34852 17.1318 7.91977 17.4444C9.49101 17.7569 11.1197 17.5965 12.5997 16.9834C14.0798 16.3704 15.3449 15.3322 16.2349 14.0001C17.1249 12.6681 17.6 11.102 17.6 9.5C17.5976 7.35248 16.7435 5.29359 15.2249 3.77507C13.7064 2.25654 11.6475 1.40238 9.5 1.4ZM9.5 0C11.3789 0 13.2156 0.557165 14.7779 1.60104C16.3402 2.64491 17.5578 4.12861 18.2769 5.86451C18.9959 7.60041 19.184 9.51054 18.8175 11.3534C18.4509 13.1962 17.5461 14.8889 16.2175 16.2175C14.8889 17.5461 13.1962 18.4509 11.3534 18.8175C9.51054 19.184 7.60041 18.9959 5.86451 18.2769C4.12861 17.5578 2.64491 16.3402 1.60104 14.7779C0.557165 13.2156 0 11.3789 0 9.5C0 6.98044 1.00089 4.56408 2.78249 2.78249C4.56408 1.00089 6.98044 0 9.5 0Z" fill="#00B400"/>
<path d="M3.78353 13.601C3.92994 13.6988 4.10921 13.7345 4.28193 13.7002C4.45465 13.6659 4.60666 13.5644 4.70453 13.418C5.23176 12.6309 5.94453 11.9856 6.78 11.539C7.61547 11.0924 8.54798 10.8581 9.49533 10.857C10.4427 10.8558 11.3758 11.0877 12.2124 11.5322C13.049 11.9767 13.7633 12.6202 14.2925 13.406C14.339 13.4831 14.4006 13.55 14.4737 13.6025C14.5468 13.655 14.6299 13.6922 14.7178 13.7116C14.8057 13.7311 14.8966 13.7325 14.985 13.7157C15.0735 13.6989 15.1576 13.6643 15.2323 13.614C15.3069 13.5637 15.3706 13.4988 15.4194 13.4231C15.4681 13.3474 15.501 13.2627 15.516 13.1739C15.531 13.0851 15.5278 12.9942 15.5066 12.9068C15.4853 12.8193 15.4465 12.737 15.3925 12.665C14.5489 11.4093 13.3256 10.4565 11.9015 9.94599C12.5013 9.45736 12.9354 8.79528 13.1443 8.05041C13.3532 7.30554 13.3268 6.5143 13.0686 5.78504C12.8104 5.05578 12.3331 4.42415 11.7021 3.97663C11.0711 3.52912 10.3171 3.28761 9.54351 3.28517C8.7699 3.28274 8.01445 3.51949 7.3806 3.96301C6.74676 4.40653 6.26551 5.03514 6.00274 5.76276C5.73998 6.49038 5.70855 7.28144 5.91277 8.02761C6.11699 8.77378 6.54687 9.43858 7.14354 9.93099C5.69641 10.4397 4.45348 11.4044 3.60154 12.68C3.50358 12.8263 3.46773 13.0055 3.50186 13.1782C3.53599 13.3509 3.6373 13.503 3.78353 13.601ZM9.53154 4.61599C10.011 4.61599 10.4796 4.75815 10.8782 5.02451C11.2769 5.29086 11.5876 5.66943 11.771 6.11236C11.9545 6.55529 12.0025 7.04268 11.909 7.51289C11.8154 7.9831 11.5846 8.41501 11.2456 8.75401C10.9066 9.09302 10.4746 9.32388 10.0044 9.41741C9.53423 9.51094 9.04684 9.46294 8.60391 9.27947C8.16098 9.09601 7.78241 8.78531 7.51606 8.38669C7.2497 7.98807 7.10753 7.51941 7.10753 7.03999C7.10806 6.39727 7.36362 5.78102 7.8181 5.32655C8.27257 4.87207 8.88881 4.61652 9.53154 4.61599Z" fill="#00B400"/>
</svg>
