<svg width="20" height="20" viewBox="0 0 20 20" fill="none" xmlns="http://www.w3.org/2000/svg">
<path d="M7.5 1.5C6.31331 1.5 5.15327 1.85189 4.16658 2.51118C3.17988 3.17047 2.41085 4.10754 1.95672 5.2039C1.5026 6.30026 1.38378 7.50666 1.61529 8.67054C1.8468 9.83443 2.41824 10.9035 3.25736 11.7426C4.09647 12.5818 5.16557 13.1532 6.32946 13.3847C7.49334 13.6162 8.69974 13.4974 9.7961 13.0433C10.8925 12.5892 11.8295 11.8201 12.4888 10.8334C13.1481 9.84673 13.5 8.68669 13.5 7.5C13.4981 5.90927 12.8654 4.38422 11.7406 3.25941C10.6158 2.13459 9.09073 1.50185 7.5 1.5ZM7.5 0C8.98336 0 10.4334 0.439867 11.6668 1.26398C12.9001 2.08809 13.8614 3.25943 14.4291 4.62987C14.9968 6.00032 15.1453 7.50832 14.8559 8.96318C14.5665 10.418 13.8522 11.7544 12.8033 12.8033C11.7544 13.8522 10.418 14.5665 8.96318 14.8559C7.50832 15.1453 6.00032 14.9968 4.62987 14.4291C3.25943 13.8614 2.08809 12.9001 1.26398 11.6668C0.439867 10.4334 0 8.98336 0 7.5C0 5.51088 0.790176 3.60322 2.1967 2.1967C3.60322 0.790176 5.51088 0 7.5 0Z" fill="#1AB41E"/>
<path d="M18.2512 19.2512C17.9919 19.2512 17.7427 19.1504 17.5562 18.9702L11.8362 13.4392C11.6456 13.2549 11.5359 13.0024 11.5314 12.7372C11.5269 12.472 11.6279 12.2159 11.8122 12.0252C11.9966 11.8345 12.2491 11.7249 12.5143 11.7204C12.7794 11.7159 13.0355 11.8169 13.2262 12.0012L18.9472 17.5312C19.0908 17.67 19.1895 17.8485 19.2307 18.0439C19.2719 18.2392 19.2537 18.4424 19.1784 18.6274C19.1031 18.8123 18.9742 18.9704 18.8082 19.0814C18.6423 19.1924 18.4469 19.2512 18.2472 19.2502L18.2512 19.2512Z" fill="#0AB325"/>
</svg>
